<?xml version="1.0" standalone="no"?>
<!DOCTYPE svg PUBLIC "-//W3C//DTD SVG 1.1//EN" "http://www.w3.org/Graphics/SVG/1.1/DTD/svg11.dtd">
<svg width="100%" height="100%" viewBox="0 0 370 100" version="1.1" xmlns="http://www.w3.org/2000/svg" xmlns:xlink="http://www.w3.org/1999/xlink" xml:space="preserve" style="fill-rule:evenodd;clip-rule:evenodd;stroke-linejoin:round;stroke-miterlimit:1.41421;">
    <g>
        <g transform="matrix(2.01054,0,0,2.01054,-150.626,-16.591)">
            <text x="126.188px" y="27.339px" style="font-family:'HelveticaNeue-Medium';font-size:11.814px;fill:rgb(115,115,115);">riot</text>
        </g>
        <g transform="matrix(3.69176,0,0,3.69176,-366.176,-141.52)">
            <text x="126.584px" y="56.977px" style="font-family:'HelveticaNeue-Medium';font-size:12px;fill:rgb(255,0,68);">r<tspan x="130.592px 137.708px " y="56.977px 56.977px ">ou</tspan>tehandler</text>
        </g>
    </g>
    <g transform="matrix(2.70691,0,0,2.70691,4.96276,7.08008)">
        <path d="M26.8,31.3C25.6,31.3 24.5,30.8 23.6,30C21.9,28.3 21.9,25.4 23.6,23.7C24.4,22.9 25.6,22.4 26.8,22.4C28,22.4 29.1,22.9 30,23.7C30.8,24.5 31.3,25.7 31.3,26.9C31.3,28.1 30.8,29.2 30,30.1C29.1,30.8 28,31.3 26.8,31.3ZM26.8,23.8C26,23.8 25.3,24.1 24.7,24.7C23.5,25.9 23.5,27.7 24.7,28.9C25.8,30 27.8,30 28.9,28.9C29.5,28.3 29.8,27.6 29.8,26.8C29.8,26 29.5,25.3 28.9,24.7C28.3,24.1 27.6,23.8 26.8,23.8Z" style="fill:rgb(255,0,68);fill-rule:nonzero;"/>
        <path d="M5.2,9.7C4,9.7 2.9,9.2 2.1,8.4C0.4,6.7 0.4,3.8 2.1,2.1C2.9,1.3 4.1,0.8 5.3,0.8C6.5,0.8 7.6,1.3 8.5,2.1C10.2,3.8 10.2,6.7 8.5,8.4C7.5,9.2 6.4,9.7 5.2,9.7ZM5.2,2.3C4.4,2.3 3.7,2.6 3.1,3.2C2,4.3 2,6.2 3.1,7.3C4.2,8.4 6.2,8.4 7.3,7.3C8.5,6.1 8.5,4.3 7.3,3.1C6.7,2.6 6,2.3 5.2,2.3Z" style="fill:rgb(255,0,68);fill-rule:nonzero;"/>
        <path d="M26.8,9.7C25.6,9.7 24.5,9.2 23.6,8.4C21.9,6.7 21.9,3.8 23.6,2.1C24.4,1.3 25.6,0.8 26.8,0.8C28,0.8 29.1,1.3 30,2.1C31.7,3.8 31.7,6.7 30,8.4C29.1,9.2 28,9.7 26.8,9.7ZM26.8,2.3C26,2.3 25.3,2.6 24.7,3.2C23.5,4.4 23.5,6.2 24.7,7.4C25.8,8.5 27.8,8.5 28.9,7.4C30.1,6.2 30.1,4.4 28.9,3.2C28.3,2.6 27.6,2.3 26.8,2.3Z" style="fill:rgb(255,0,68);fill-rule:nonzero;"/>
        <path d="M5.2,31.3C4,31.3 2.9,30.8 2,30C0.3,28.3 0.3,25.4 2,23.7C2.8,22.9 4,22.4 5.2,22.4C6.4,22.4 7.5,22.9 8.4,23.7C9.2,24.5 9.7,25.7 9.7,26.9C9.7,28.1 9.2,29.2 8.4,30.1C7.5,30.8 6.4,31.3 5.2,31.3ZM5.2,23.8C4.4,23.8 3.7,24.1 3.1,24.7C1.9,25.9 1.9,27.7 3.1,28.9C4.2,30 6.2,30 7.3,28.9C7.9,28.3 8.2,27.6 8.2,26.8C8.2,26 7.9,25.3 7.3,24.7C6.7,24.1 6,23.8 5.2,23.8Z" style="fill:rgb(255,0,68);fill-rule:nonzero;"/>
        <g transform="matrix(0.7071,0.7071,-0.7071,0.7071,9.9693,-4.1289)">
            <rect x="6.9" y="9.2" width="6.1" height="1.5" style="fill:rgb(255,0,68);"/>
        </g>
        <g transform="matrix(0.7071,0.7071,-0.7071,0.7071,22.0314,-9.1259)">
            <rect x="19" y="21.3" width="6.1" height="1.5" style="fill:rgb(255,0,68);"/>
        </g>
        <g transform="matrix(0.7071,0.7071,-0.7071,0.7071,18.4975,-0.5963)">
            <rect x="9.2" y="19" width="1.5" height="6.1" style="fill:rgb(255,0,68);"/>
        </g>
        <g transform="matrix(0.7071,0.7071,-0.7071,0.7071,13.5018,-12.6591)">
            <rect x="21.3" y="6.9" width="1.5" height="6.1" style="fill:rgb(255,0,68);"/>
        </g>
        <path d="M16,8.8C13.8,8.8 12,7 12,4.8C12,2.6 13.8,0.8 16,0.8C18.2,0.8 20,2.6 20,4.8C20,7 18.2,8.8 16,8.8ZM16,2.3C14.6,2.3 13.5,3.4 13.5,4.8C13.5,6.2 14.6,7.3 16,7.3C17.4,7.3 18.5,6.2 18.5,4.8C18.5,3.4 17.4,2.3 16,2.3Z" style="fill:rgb(255,0,68);fill-rule:nonzero;"/>
        <rect x="15.3" y="8.1" width="1.5" height="2.4" style="fill:rgb(255,0,68);"/>
        <path d="M16,31.3C13.8,31.3 12,29.5 12,27.3C12,25.1 13.8,23.3 16,23.3C18.2,23.3 20,25.1 20,27.3C20,29.4 18.2,31.3 16,31.3ZM16,24.7C14.6,24.7 13.5,25.8 13.5,27.2C13.5,28.6 14.6,29.7 16,29.7C17.4,29.7 18.5,28.6 18.5,27.2C18.5,25.8 17.4,24.7 16,24.7Z" style="fill:rgb(255,0,68);fill-rule:nonzero;"/>
        <rect x="15.3" y="21.5" width="1.5" height="2.4" style="fill:rgb(255,0,68);"/>
        <path d="M4.8,20C2.6,20 0.8,18.2 0.8,16C0.8,13.8 2.6,12 4.8,12C7,12 8.8,13.8 8.8,16C8.8,18.2 7,20 4.8,20ZM4.8,13.5C3.4,13.5 2.3,14.6 2.3,16C2.3,17.4 3.4,18.5 4.8,18.5C6.2,18.5 7.3,17.4 7.3,16C7.3,14.6 6.2,13.5 4.8,13.5Z" style="fill:rgb(255,0,68);fill-rule:nonzero;"/>
        <rect x="8.1" y="15.3" width="2.4" height="1.5" style="fill:rgb(255,0,68);"/>
        <path d="M27.2,20C25,20 23.2,18.2 23.2,16C23.2,13.8 25,12 27.2,12C29.4,12 31.2,13.8 31.2,16C31.3,18.2 29.4,20 27.2,20ZM27.2,13.5C25.8,13.5 24.7,14.6 24.7,16C24.7,17.4 25.8,18.5 27.2,18.5C28.6,18.5 29.7,17.4 29.7,16C29.7,14.6 28.6,13.5 27.2,13.5Z" style="fill:rgb(255,0,68);fill-rule:nonzero;"/>
        <rect x="21.5" y="15.3" width="2.4" height="1.5" style="fill:rgb(255,0,68);"/>
        <path d="M16,22.2C14.3,22.2 12.8,21.6 11.6,20.4C9.2,18 9.2,14 11.6,11.6C12.8,10.4 14.3,9.8 16,9.8C17.7,9.8 19.2,10.4 20.4,11.6C22.8,14 22.8,18 20.4,20.4C19.2,21.6 17.7,22.2 16,22.2ZM16,11.3C14.7,11.3 13.6,11.8 12.7,12.7C10.9,14.5 10.9,17.5 12.7,19.4C13.6,20.3 14.8,20.8 16,20.8C17.2,20.8 18.4,20.3 19.3,19.4C21.1,17.6 21.1,14.6 19.3,12.7C18.4,11.8 17.3,11.3 16,11.3Z" style="fill:rgb(255,0,68);fill-rule:nonzero;"/>
    </g>
</svg>
